<?xml version="1.0" standalone="no"?>
<!DOCTYPE svg PUBLIC "-//W3C//DTD SVG 1.1//EN" "http://www.w3.org/Graphics/SVG/1.1/DTD/svg11.dtd">
<svg version="1.1" xmlns="http://www.w3.org/2000/svg" 
     width="100" height="100" viewBox="400 400 1248 1248" 
     preserveAspectRatio="xMidYMid meet">
  
  <g transform="translate(0,2048) scale(0.1,-0.1)" fill="#FFFFFF" stroke="none">
    <path d="M9845 14024 c-100 -35 -192 -141 -214 -246 -6 -27 -11 -102 -11 -167
      0 -114 1 -119 26 -145 l27 -26 233 0 234 0 0 -119 0 -118 -100 -7 c-364 -25
      -720 -141 -1064 -346 -65 -39 -119 -70 -120 -68 -1 2 -40 55 -87 118 -47 63
      -89 120 -92 127 -7 12 90 78 150 102 18 7 64 14 104 15 64 2 74 4 95 29 28 32
      30 66 9 107 -25 49 -51 60 -137 60 -124 0 -204 -36 -400 -180 -206 -151 -297
      -241 -343 -337 -49 -102 -40 -184 22 -212 68 -31 123 2 147 90 13 45 27 66 78
      117 76 74 107 97 117 86 28 -32 181 -246 181 -253 0 -5 -30 -34 -67 -64 -284
      -232 -573 -666 -697 -1046 -86 -263 -121 -490 -120 -781 2 -398 77 -728 243
      -1066 371 -756 1113 -1270 1956 -1355 146 -14 438 -7 585 16 296 45 603 152
      847 296 85 50 104 66 113 94 16 48 -8 101 -53 120 -43 18 -70 11 -156 -40 -36
      -21 -110 -59 -165 -85 -484 -228 -992 -276 -1505 -144 -279 72 -615 243 -835
      424 -462 379 -743 885 -821 1473 -19 150 -19 413 0 559 65 495 301 967 657
      1314 124 122 200 182 341 275 269 177 557 288 892 345 142 25 478 25 635 1
      405 -63 785 -230 1100 -484 219 -177 447 -466 583 -738 160 -322 229 -619 229
      -985 1 -314 -48 -577 -157 -852 -53 -133 -56 -147 -33 -194 21 -45 98 -58 141
      -24 66 52 164 351 219 668 19 110 22 163 22 397 0 294 -6 354 -65 595 -41 168
      -97 317 -180 480 -145 288 -330 531 -552 727 -45 40 -82 77 -82 82 0 6 44 67
      98 136 l99 125 50 -42 c68 -58 117 -128 134 -191 16 -63 43 -87 96 -87 31 0
      46 7 70 30 28 28 30 35 26 85 -5 65 -51 161 -108 227 -22 26 -104 95 -181 153
      -236 179 -367 245 -488 245 -72 0 -108 -14 -127 -51 -23 -45 -18 -87 15 -120
      26 -26 36 -29 93 -29 65 0 127 -23 220 -82 l38 -23 -92 -119 c-50 -65 -97
      -120 -103 -122 -7 -3 -57 22 -113 55 -341 203 -652 305 -1045 344 l-122 12 -3
      118 -3 117 235 0 c234 0 235 0 263 24 l28 24 -3 129 c-2 71 -9 150 -17 178
      -30 108 -120 197 -230 231 -69 20 -701 19 -760 -2z m735 -199 c46 -27 70 -76
      70 -144 l0 -54 -67 6 c-38 4 -224 7 -415 7 l-348 0 0 46 c0 47 21 104 46 125
      42 35 85 39 384 36 276 -2 297 -3 330 -22z"/>
    <path d="M9980 12849 c-347 -44 -728 -202 -995 -412 -327 -257 -536 -534 -692
      -916 -140 -347 -172 -815 -83 -1223 83 -383 280 -730 584 -1033 283 -281 640
      -474 1020 -550 743 -148 1476 92 1958 641 369 420 544 875 542 1414 -1 360
      -63 628 -219 941 -109 219 -228 381 -417 565 -327 320 -744 518 -1208 574 -98
      12 -395 11 -490 -1z m413 -189 c469 -39 929 -267 1240 -615 209 -234 363 -522
      433 -810 155 -636 -27 -1316 -479 -1791 -461 -486 -1140 -681 -1805 -519 -664
      161 -1210 713 -1376 1390 -64 261 -69 552 -15 834 95 494 429 973 860 1235
      354 214 745 309 1142 276z"/>
    <path d="M10169 12501 c-27 -27 -29 -35 -29 -106 0 -114 28 -155 105 -155 25
      0 43 8 60 25 23 22 25 32 25 120 0 91 -1 97 -26 120 -39 36 -96 34 -135 -4z"/>
    <path d="M10204 11920 c-12 -4 -31 -21 -43 -36 -21 -27 -21 -30 -21 -591 l0
      -565 29 -29 29 -29 516 0 515 0 28 24 c23 20 28 32 28 71 0 39 -5 51 -28 71
      l-28 24 -443 0 -443 0 -7 38 c-3 20 -6 245 -6 500 0 313 -4 470 -11 484 -6 11
      -26 26 -44 34 -39 16 -42 16 -71 4z"/>
    <path d="M8532 10863 c-19 -7 -42 -58 -42 -93 0 -21 9 -41 29 -61 28 -27 35
      -29 108 -29 88 0 113 11 133 59 15 36 8 68 -21 104 -19 26 -25 27 -107 26 -48
      0 -93 -3 -100 -6z"/>
    <path d="M11745 10846 c-32 -32 -40 -69 -25 -107 20 -48 45 -59 135 -59 83 1
      103 8 123 47 23 42 10 101 -27 130 -10 7 -50 12 -99 13 -75 0 -85 -2 -107 -24z"/>
    <path d="M10191 9277 c-38 -22 -50 -56 -51 -137 0 -84 12 -110 61 -136 25 -12
      37 -13 65 -4 54 18 64 42 64 145 0 83 -2 94 -24 114 -29 27 -83 36 -115 18z"/>
    <path d="M12078 9477 c-15 -7 -55 -48 -90 -93 -35 -44 -103 -124 -153 -178
      -112 -121 -121 -137 -106 -186 13 -45 47 -70 94 -70 44 0 63 16 185 152 143
      160 209 247 216 280 15 76 -67 130 -146 95z"/>
    <path d="M11953 7106 c-145 -47 -245 -174 -260 -329 -16 -176 65 -330 213
      -403 55 -27 67 -29 174 -29 105 0 120 2 170 27 30 15 70 43 89 62 l34 35 -49
      44 -49 45 -37 -33 c-66 -60 -175 -73 -264 -31 -182 85 -182 387 0 472 86 40
      213 25 266 -32 13 -13 27 -24 31 -24 4 0 28 21 53 48 l45 47 -22 23 c-12 13
      -50 37 -85 54 -56 28 -75 32 -165 35 -68 2 -116 -2 -144 -11z"/>
    <path d="M15480 7104 c-94 -34 -175 -109 -216 -199 -73 -160 -40 -364 78 -470
      144 -130 344 -139 534 -23 l54 32 0 168 0 168 -160 0 -160 0 0 -65 0 -65 90 0
      90 0 0 -71 0 -70 -47 -22 c-67 -30 -182 -30 -240 1 -151 79 -180 307 -54 432
      89 89 233 94 339 14 18 -15 37 -22 41 -18 4 5 24 30 45 56 l37 46 -34 26 c-70
      54 -124 70 -242 73 -82 2 -121 -1 -155 -13z"/>
    <path d="M4830 7045 l0 -65 115 0 115 0 0 -315 0 -315 70 0 70 0 0 315 0 315
      120 0 120 0 0 65 0 65 -305 0 -305 0 0 -65z"/>
    <path d="M5770 6730 l0 -380 70 0 70 0 0 380 0 380 -70 0 -70 0 0 -380z"/>
    <path d="M6310 6730 l0 -380 70 0 70 0 2 262 3 262 109 -165 c60 -90 112 -168
      116 -172 4 -4 58 70 121 165 l114 173 3 -262 2 -263 70 0 70 0 0 380 0 380
      -78 0 -78 0 -105 -170 c-57 -94 -108 -169 -112 -167 -4 1 -54 76 -111 167
      l-103 165 -81 3 -82 3 0 -381z"/>
    <path d="M7440 6730 l0 -380 285 0 285 0 0 65 0 65 -215 0 -215 0 0 90 0 90
      185 0 185 0 0 65 0 65 -185 0 -185 0 0 90 0 90 148 0 c81 0 177 3 214 6 l67 7
      -2 61 -2 61 -282 3 -283 2 0 -380z"/>
    <path d="M8798 7103 c-2 -5 -2 -34 0 -65 l4 -57 111 -3 112 -3 3 -312 2 -313
      70 0 70 0 0 315 0 315 120 0 121 0 -3 63 -3 62 -302 3 c-166 1 -303 -1 -305
      -5z"/>
    <path d="M9730 6731 l0 -381 70 0 70 0 0 130 0 130 83 0 83 0 85 -130 84 -130
      83 0 c97 0 99 -18 -21 160 l-85 124 41 19 c53 23 74 43 98 89 47 93 30 223
      -38 290 -68 66 -92 72 -335 76 l-218 4 0 -381z m421 222 c52 -31 67 -118 29
      -166 -28 -36 -76 -47 -202 -47 l-108 0 0 113 c0 63 3 117 7 121 14 14 245 -4
      274 -21z"/>
    <path d="M10951 7087 c-20 -51 -158 -372 -232 -538 -44 -97 -79 -182 -79 -188
      0 -8 21 -11 71 -9 l71 3 32 80 32 80 178 0 177 0 36 -82 35 -83 75 0 c56 0 74
      3 70 13 -3 6 -50 113 -105 237 -55 124 -127 288 -159 365 l-59 140 -67 3 c-63
      3 -68 1 -76 -21z m145 -324 c24 -58 44 -108 44 -109 0 -2 -52 -4 -116 -4 -89
      0 -115 3 -111 13 3 6 25 59 49 117 25 58 48 114 52 125 7 19 9 18 22 -8 9 -16
      35 -76 60 -134z"/>
    <path d="M12700 6730 l0 -380 70 0 70 0 0 108 0 108 53 52 c29 29 57 52 62 51
      6 0 64 -72 130 -160 l120 -159 83 0 c64 0 82 3 76 13 -8 13 -200 276 -266 363
      -21 28 -38 55 -38 60 0 5 65 78 145 161 80 83 145 154 145 157 0 3 -37 6 -83
      6 l-83 0 -106 -117 c-59 -65 -136 -147 -172 -183 l-66 -64 0 182 0 182 -70 0
      -70 0 0 -380z"/>
    <path d="M13690 6730 l0 -380 70 0 70 0 0 380 0 380 -70 0 -70 0 0 -380z"/>
    <path d="M14220 6730 l0 -380 70 0 70 0 2 256 3 257 144 -189 c80 -104 169
      -219 199 -256 l54 -68 54 0 54 0 0 380 0 380 -70 0 -70 0 -2 -245 -3 -246
      -186 243 -186 243 -66 3 -67 3 0 -381z"/>
    <path d="M8280 6645 l0 -65 155 0 155 0 0 65 0 65 -155 0 -155 0 0 -65z"/>
  </g>
</svg>