<svg xmlns="http://www.w3.org/2000/svg" width="100" height="100" viewBox="0 0 2048 2048" preserveAspectRatio="xMidYMid meet">
  <g transform="translate(-2500.000000,4950.000000) scale(0.35,-0.35)" fill="#FFFFFF" stroke="none">
    <path d="M9845 14024 c-100 -35 -192 -141 -214 -246 -6 -27 -11 -102 -11 -167
      0 -114 1 -119 26 -145 l27 -26 233 0 234 0 0 -119 0 -118 -100 -7 c-364 -25
      -720 -141 -1064 -346 -65 -39 -119 -70 -120 -68 -1 2 -40 55 -87 118 -47 63
      -89 120 -92 127 -7 12 90 78 150 102 18 7 64 14 104 15 64 2 74 4 95 29 28 32
      30 66 9 107 -25 49 -51 60 -137 60 -124 0 -204 -36 -400 -180 -206 -151 -297
      -241 -343 -337 -49 -102 -40 -184 22 -212 68 -31 123 2 147 90 13 45 27 66 78
      117 76 74 107 97 117 86 28 -32 181 -246 181 -253 0 -5 -30 -34 -67 -64 -284
      -232 -573 -666 -697 -1046 -86 -263 -121 -490 -120 -781 2 -398 77 -728 243
      -1066 371 -756 1113 -1270 1956 -1355 146 -14 438 -7 585 16 296 45 603 152
      847 296 85 50 104 66 113 94 16 48 -8 101 -53 120 -43 18 -70 11 -156 -40 -36
      -21 -110 -59 -165 -85 -484 -228 -992 -276 -1505 -144 -279 72 -615 243 -835
      424 -462 379 -743 885 -821 1473 -19 150 -19 413 0 559 65 495 301 967 657
      1314 124 122 200 182 341 275 269 177 557 288 892 345 142 25 478 25 635 1
      405 -63 785 -230 1100 -484 219 -177 447 -466 583 -738 160 -322 229 -619 229
      -985 1 -314 -48 -577 -157 -852 -53 -133 -56 -147 -33 -194 21 -45 98 -58 141
      -24 66 52 164 351 219 668 19 110 22 163 22 397 0 294 -6 354 -65 595 -41 168
      -97 317 -180 480 -145 288 -330 531 -552 727 -45 40 -82 77 -82 82 0 6 44 67
      98 136 l99 125 50 -42 c68 -58 117 -128 134 -191 16 -63 43 -87 96 -87 31 0
      46 7 70 30 28 28 30 35 26 85 -5 65 -51 161 -108 227 -22 26 -104 95 -181 153
      -236 179 -367 245 -488 245 -72 0 -108 -14 -127 -51 -23 -45 -18 -87 15 -120
      26 -26 36 -29 93 -29 65 0 127 -23 220 -82 l38 -23 -92 -119 c-50 -65 -97
      -120 -103 -122 -7 -3 -57 22 -113 55 -341 203 -652 305 -1045 344 l-122 12 -3
      118 -3 117 235 0 c234 0 235 0 263 24 l28 24 -3 129 c-2 71 -9 150 -17 178
      -30 108 -120 197 -230 231 -69 20 -701 19 -760 -2z m735 -199 c46 -27 70 -76
      70 -144 l0 -54 -67 6 c-38 4 -224 7 -415 7 l-348 0 0 46 c0 47 21 104 46 125
      42 35 85 39 384 36 276 -2 297 -3 330 -22z"/>
    <path d="M9980 12849 c-347 -44 -728 -202 -995 -412 -327 -257 -536 -534 -692
      -916 -140 -347 -172 -815 -83 -1223 83 -383 280 -730 584 -1033 283 -281 640
      -474 1020 -550 743 -148 1476 92 1958 641 369 420 544 875 542 1414 -1 360
      -63 628 -219 941 -109 219 -228 381 -417 565 -327 320 -744 518 -1208 574 -98
      12 -395 11 -490 -1z m413 -189 c469 -39 929 -267 1240 -615 209 -234 363 -522
      433 -810 155 -636 -27 -1316 -479 -1791 -461 -486 -1140 -681 -1805 -519 -664
      161 -1210 713 -1376 1390 -64 261 -69 552 -15 834 95 494 429 973 860 1235
      354 214 745 309 1142 276z"/>
  </g>
</svg>
